Coordinates
version=1
nRows=8
nColumns=40
inDegrees=yes

Units are S.I. units (second, meters, Newtons, ...)
Angles are in degrees.

endheader
time	pelvis_tilt	pelvis_list	pelvis_rotation	pelvis_tx	pelvis_ty	pelvis_tz	hip_flexion_r	hip_adduction_r	hip_rotation_r	knee_angle_r	knee_angle_r_beta	ankle_angle_r	subtalar_angle_r	mtp_angle_r	hip_flexion_l	hip_adduction_l	hip_rotation_l	knee_angle_l	knee_angle_l_beta	ankle_angle_l	subtalar_angle_l	mtp_angle_l	lumbar_extension	lumbar_bending	lumbar_rotation	arm_flex_r	arm_add_r	arm_rot_r	elbow_flex_r	pro_sup_r	wrist_flex_r	wrist_dev_r	arm_flex_l	arm_add_l	arm_rot_l	elbow_flex_l	pro_sup_l	wrist_flex_l	wrist_dev_l
     40.17000000	     -2.27730128	     -6.03504615	      4.33854601	      0.96252733	      0.93437795	      0.50493490	      8.06255110	      6.73232236	    -18.59299664	      9.59796811	      9.59796811	      6.99543543	      2.59285339	     -6.99340426	     32.25461235	    -13.48844281	     -0.47768957	     53.66627072	     53.66627072	     11.36951406	    -18.93518050	     18.02961475	     -9.13901924	      6.94523117	      4.03034972	     22.65362698	    -16.95239021	     -2.63789448	     63.49337453	     45.59365456	      0.00000000	      0.00000000	      1.24789949	     -7.27627571	     -0.39126544	     23.47381018	     45.44918020	      0.00000000	      0.00000000
     40.18214286	     -2.40150877	     -6.18010479	      4.52075541	      0.96155003	      0.93428817	      0.50550960	      7.31532129	      7.07511821	    -18.82335079	      8.76877334	      8.76877334	      7.08010188	      3.19702760	     -7.06890688	     33.04576055	    -13.49705609	     -0.82357458	     50.38477479	     50.38477479	     11.41679634	    -18.79308528	     17.41792352	     -9.00639374	      7.12773831	      3.70932237	     24.18654744	    -16.62736320	     -2.81313831	     66.24023038	     45.50974992	      0.00000000	      0.00000000	     -0.05647548	     -7.41415662	     -0.48969509	     23.36222967	     45.44981094	      0.00000000	      0.00000000
     40.19428571	     -2.51886718	     -6.18276172	      4.67079669	      0.96060550	      0.93426630	      0.50597867	      6.61953225	      7.23596590	    -19.07008706	      8.08706971	      8.08706971	      7.26550145	      3.81029644	     -7.16271642	     33.44088567	    -13.28076686	     -1.27503869	     46.57437964	     46.57437964	     11.27510720	    -18.56779591	     16.98710530	     -8.87918482	      7.19517639	      3.69203859	     25.67763514	    -16.47234452	     -2.95982961	     68.66820711	     45.43829949	      0.00000000	      0.00000000	     -1.22690930	     -7.58016903	     -0.54688773	     23.29010442	     45.44092139	      0.00000000	      0.00000000
     40.20642857	     -2.63455948	     -6.35546005	      4.80529593	      0.95977700	      0.93392754	      0.50635894	      5.92414085	      7.53411512	    -19.80860135	      7.40060639	      7.40060639	      7.45639262	      5.27146744	     -7.43611712	     33.59712162	    -13.20045275	     -1.65988893	     42.39950979	     42.39950979	     10.10872765	    -18.21438838	     13.81951356	     -8.85793872	      7.46204686	      4.30547175	     26.15392237	    -17.15258766	     -3.34949248	     73.67285915	     45.28838425	      0.00000000	      0.00000000	     -2.46686724	     -7.65496260	     -0.57049168	     24.40884073	     45.42711142	      0.00000000	      0.00000000
     40.21857143	     -2.73942715	     -6.47168573	      4.94161844	      0.95895616	      0.93360422	      0.50661898	      5.24650029	      7.80213271	    -20.14226694	      6.74663811	      6.74663811	      7.66972329	      6.11594106	     -7.43996831	     33.57632171	    -12.93704697	     -1.85078611	     38.13036695	     38.13036695	      9.39291013	    -17.51758371	     12.28053511	     -8.76435997	      7.66528153	      4.33464477	     27.54600156	    -16.96537320	     -3.83692402	     76.45469796	     45.22431829	      0.00000000	      0.00000000	     -3.53176364	     -7.74072502	     -0.20401942	     24.33129882	     45.35527924	      0.00000000	      0.00000000
     40.23071429	     -2.83956698	     -6.52734417	      5.01473525	      0.95814772	      0.93324206	      0.50681030	      4.68731250	      7.97351394	    -20.27932387	      6.34290699	      6.34290699	      7.91089419	      6.48806900	     -7.50791493	     33.46567024	    -12.63013733	     -2.07187849	     34.00070055	     34.00070055	      9.39020890	    -16.15924798	     12.45493431	     -8.63649407	      7.78740212	      4.35027960	     29.23031874	    -16.68732185	     -3.99727157	     78.25537624	     45.17908916	      0.00000000	      0.00000000	     -4.54778058	     -7.83579926	     -0.11424649	     24.07089030	     45.32363484	      0.00000000	      0.00000000
     40.24285714	     -2.92434548	     -6.72639239	      5.14296647	      0.95745830	      0.93266000	      0.50678599	      4.03314059	      8.28533471	    -20.89156062	      5.76793631	      5.76793631	      8.16547698	      7.73210727	     -7.53223265	     33.37051165	    -12.47498225	     -2.22684098	     30.07745562	     30.07745562	      9.12243824	    -14.26948016	     11.60826877	     -8.57026328	      8.10843662	      4.42322746	     30.34755051	    -16.60792493	     -4.23936677	     81.72332979	     45.08626897	      0.00000000	      0.00000000	     -5.69658119	     -7.87777207	      0.14574454	     24.57373257	     45.25982248	      0.00000000	      0.00000000
     40.25500000	     -3.04191238	     -6.80353207	      5.19336926	      0.95671695	      0.93211953	      0.50667535	      3.57826769	      8.43005049	    -20.99434768	      5.52222980	      5.52222980	      8.43771299	      8.09370730	     -7.58471404	     33.19848005	    -12.22184140	     -2.50089024	     26.30634520	     26.30634520	      9.20095820	    -12.07070163	     11.79219538	     -8.45248422	      8.26293506	      4.43709570	     31.81053090	    -16.34011110	     -4.40651531	     83.59366706	     45.04028501	      0.00000000	      0.00000000	     -6.58514316	     -7.88458216	      0.28568497	     24.46708523	     45.22199142	      0.00000000	      0.00000000
